<?xml version="1.0" encoding="UTF-8"?>
<svg version="1.1" xmlns="http://www.w3.org/2000/svg" width="1336" height="1876">
<path d="M0 0 C440.88 0 881.76 0 1336 0 C1336.0825 119.7075 1336.165 239.415 1336.25 362.75 C1336.28641602 400.53338867 1336.32283203 438.31677734 1336.36035156 477.24511719 C1336.37841797 523.42041016 1336.37841797 523.42041016 1336.3817749 545.04425049 C1336.38574268 561.1222597 1336.40295015 577.20020104 1336.42669371 593.27819126 C1336.45062449 609.7066779 1336.45931937 626.13512215 1336.4537798 642.56362553 C1336.45117638 651.46515202 1336.4546062 660.36656182 1336.47686052 669.26806402 C1336.6386507 736.47707216 1336.6386507 736.47707216 1332 766 C1331.62612855 768.68066911 1331.26529393 771.36277653 1330.90672994 774.04552341 C1330.43785787 777.4367648 1329.8806204 780.8117039 1329.3125 784.1875 C1329.13116516 785.28552444 1329.13116516 785.28552444 1328.94616699 786.4057312 C1315.20854359 869.07670846 1287.29156271 949.70257201 1186 1108 C1185.26652344 1108.91652344 1184.53304688 1109.83304688 1183.77734375 1110.77734375 C1174.43522131 1122.32359671 1164.63377917 1133.49781589 1154.51464844 1144.36767578 C1152.83813233 1146.17444347 1151.17325903 1147.99161963 1149.5078125 1149.80859375 C1141.60655377 1158.38422346 1133.41741523 1166.50379195 1124.79785156 1174.35498047 C1123.03810686 1175.96513254 1121.29406927 1177.59055133 1119.5546875 1179.22265625 C1113.79233101 1184.6196979 1107.94027493 1189.80336989 1101.77734375 1194.74609375 C1099.35212269 1196.7142408 1096.98220324 1198.73302157 1094.62231445 1200.77856445 C1086.24338137 1208.01127942 1077.39990073 1214.60135813 1068.49169922 1221.1640625 C1066.91277743 1222.32744599 1065.33600572 1223.49375791 1063.76220703 1224.6640625 C1028.24532646 1251.06800576 989.63855452 1273.26793511 950.2578125 1293.33740234 C947.23954005 1294.87775272 944.22874285 1296.4318364 941.21875 1297.98828125 C868.40738689 1335.33633133 789.7328071 1361.65901591 711.88720703 1386.14355469 C707.28336388 1387.59215068 702.68620462 1389.06041926 698.09172058 1390.53839111 C695.01244466 1391.52542668 691.92869989 1392.49774986 688.84310913 1393.46484375 C687.4752516 1393.89625924 686.10912282 1394.33320534 684.74502563 1394.77636719 C682.91338292 1395.36993812 681.07401149 1395.93950002 679.234375 1396.5078125 C677.73729004 1396.98178467 677.73729004 1396.98178467 676.20996094 1397.46533203 C667.1979149 1398.9664258 658.75047905 1395.58600627 650.265625 1392.8359375 C648.92224466 1392.40705974 647.57864159 1391.97887911 646.23483276 1391.55134583 C642.64663143 1390.40715121 639.06203446 1389.25205248 635.4782486 1388.0941124 C632.4860495 1387.12845378 629.4920683 1386.16838449 626.49814034 1385.20810223 C617.6448796 1382.36781895 608.79834262 1379.50704221 599.95533752 1376.63500214 C598.12461114 1376.04046787 596.29369668 1375.44651282 594.46276855 1374.8526001 C509.52095317 1347.27890573 424.75458967 1315.21291587 348 1269 C346.95489258 1268.37367676 345.90978516 1267.74735352 344.83300781 1267.10205078 C317.47968081 1250.66442892 291.13619311 1232.6650068 266 1213 C264.84916533 1212.10780585 263.69811768 1211.21588637 262.546875 1210.32421875 C255.09033494 1204.53006303 247.81290935 1198.55898496 240.64746094 1192.40917969 C238.9719121 1190.97597461 237.28773026 1189.55350262 235.6015625 1188.1328125 C227.49772109 1181.28257874 219.69484041 1174.15830309 211.98583984 1166.86816406 C209.93515772 1164.93900011 207.86971553 1163.02675342 205.80078125 1161.1171875 C196.75112208 1152.73630865 188.15866584 1144.06287201 179.82177734 1134.97460938 C177.98564285 1132.98443841 176.13113315 1131.01322551 174.26953125 1129.046875 C168.34035364 1122.77665941 162.58023995 1116.46719736 157.19140625 1109.71875 C155.21262551 1107.26379208 153.18155866 1104.86361041 151.12426758 1102.47436523 C144.05961342 1094.25255863 137.47881009 1085.68806692 131 1077 C130.48743652 1076.31373535 129.97487305 1075.6274707 129.44677734 1074.92041016 C116.11163385 1056.97695454 103.2230541 1038.30748114 92.09570312 1018.90429688 C90.85365428 1016.74565584 89.59060679 1014.59987673 88.328125 1012.453125 C47.66005362 942.82829229 20.59661609 865.83091607 1 728 C0.91170962 726.95734387 0.82341925 725.91468775 0.73245341 724.84043598 C-0.25485042 711.62778684 -0.13890711 698.40718761 -0.12226575 685.16506445 C-0.11880202 681.51503084 -0.12121132 677.86500006 -0.12284851 674.21496582 C-0.12491754 667.82465459 -0.12329406 661.43435273 -0.11921513 655.04404259 C-0.11309149 645.41861451 -0.11284713 635.79319205 -0.11368043 626.16776238 C-0.11492019 610.03412172 -0.11163872 593.90048515 -0.10557556 577.7668457 C-0.09739187 555.95198419 -0.09547188 534.13712966 -0.09460449 512.32226562 C-0.08935542 459.88150959 -0.07539429 407.44075472 -0.0625 355 C-0.041875 237.85 -0.02125 120.7 0 0 Z M121 121 C121 190.96 121 260.92 121 333 C120.7361096 370.8352857 120.46876386 408.66638347 120.10253906 446.5 C119.58962646 501.83087322 120.23591687 557.15792058 120.89877987 612.48492622 C120.97308712 618.69223271 121.04422368 624.8995667 121.11328125 631.10693359 C122.28472424 735.5181787 132.83659261 831.27437788 196 956 C196.5038623 956.86705566 197.00772461 957.73411133 197.52685547 958.62744141 C212.21127085 983.87240283 229.26621622 1007.60640208 248 1030 C248.74564209 1030.89428711 248.74564209 1030.89428711 249.50634766 1031.80664062 C261.27443339 1045.87405909 273.93109742 1059.01981954 286.875 1072 C287.41506683 1072.54274567 287.95513367 1073.08549133 288.51156616 1073.64468384 C294.49493937 1079.65056417 300.54755255 1085.4940139 307 1091 C308.5448126 1092.4132355 310.08695325 1093.82940409 311.625 1095.25 C316.66464814 1099.79722451 321.94770864 1103.9652243 327.30859375 1108.12109375 C330.37618366 1110.5010505 333.39673843 1112.93359105 336.40893555 1115.38305664 C350.57597315 1126.86359858 365.54040207 1137.11930015 380.6875 1147.25 C381.38220398 1147.71581482 382.07690796 1148.18162964 382.79266357 1148.66156006 C392.3627934 1155.06960715 402.06430416 1161.17495901 412 1167 C412.90951416 1167.53334961 413.81902832 1168.06669922 414.75610352 1168.61621094 C482.13071275 1207.81938938 553.54099755 1237.21945802 627.28387451 1262.08300781 C630.02692468 1263.00909005 632.76757348 1263.94206907 635.50830078 1264.875 C639.96214034 1266.38509777 644.42718778 1267.85652717 648.90289307 1269.30047607 C650.5680662 1269.8421676 652.22998026 1270.39400235 653.88812256 1270.95684814 C656.18628838 1271.733604 658.49410645 1272.46887631 660.80859375 1273.1953125 C661.46312027 1273.42561157 662.11764679 1273.65591064 662.79200745 1273.89318848 C669.25614689 1275.83066317 674.71676625 1273.94877201 681 1272 C682.01457779 1271.68923523 683.02915558 1271.37847046 684.07447815 1271.05828857 C687.32242171 1270.03495975 690.55445003 1268.97100496 693.78515625 1267.89453125 C694.9835463 1267.49833084 696.18193634 1267.10213043 697.41664124 1266.69392395 C701.30073519 1265.40644216 705.18196116 1264.11064191 709.0625 1262.8125 C710.40858491 1262.36308384 711.75467462 1261.91368208 713.10076904 1261.46429443 C748.58083671 1249.60737181 783.58665196 1236.68298223 818 1222 C819.11922852 1221.52256348 820.23845703 1221.04512695 821.39160156 1220.55322266 C828.63019111 1217.44703752 835.82597672 1214.25231196 843 1211 C844.70639648 1210.2280127 844.70639648 1210.2280127 846.44726562 1209.44042969 C874.1189746 1196.86579254 901.26260649 1183.28192032 927.32128906 1167.60693359 C929.9316744 1166.04098789 932.55346967 1164.49624502 935.1796875 1162.95703125 C982.02093133 1135.38442759 1024.55693931 1101.45067031 1063 1063.125 C1063.495 1062.63267883 1063.99 1062.14035767 1064.5 1061.63311768 C1070.22075135 1055.93590167 1075.77163771 1050.15551855 1081 1044 C1081.98455731 1042.87011703 1082.97020201 1041.74118049 1083.95703125 1040.61328125 C1110.78667752 1009.68909506 1132.91132013 975.14390214 1152 939 C1152.45197754 938.14809082 1152.90395508 937.29618164 1153.36962891 936.41845703 C1184.2556902 877.76989742 1202.81519119 812.62037439 1211 747 C1211.0834411 746.33590576 1211.16688221 745.67181151 1211.25285183 744.9875932 C1213.02182909 730.49989403 1213.27856418 716.17028675 1213.24050903 701.58880615 C1213.24138575 699.07795162 1213.24314301 696.56709728 1213.24569702 694.0562439 C1213.24922467 688.6250102 1213.24661572 683.19383476 1213.23843026 677.7626071 C1213.22614195 669.58194724 1213.22569774 661.40131368 1213.22736086 653.22064625 C1213.22983584 639.506159 1213.22329643 625.791691 1213.21115112 612.07720947 C1213.19475819 593.5333996 1213.1909421 574.98962257 1213.18920898 556.44580078 C1213.17871904 511.88052995 1213.15079669 467.3152646 1213.125 422.75 C1213.08375 323.1725 1213.0425 223.595 1213 121 C852.64 121 492.28 121 121 121 Z " fill="#0000D6" transform="translate(0,478)"/>
<path d="M0 0 C75.69375 -0.061875 151.3875 -0.12375 229.375 -0.1875 C265.1994165 -0.22846802 265.1994165 -0.22846802 301.74755859 -0.27026367 C330.95629883 -0.28381348 330.95629883 -0.28381348 344.63882446 -0.28633118 C354.17603794 -0.28912124 363.71319829 -0.30009377 373.25039673 -0.31672668 C384.26649782 -0.33591019 395.28254821 -0.34448749 406.2986661 -0.34033485 C411.92606342 -0.3385384 417.55334765 -0.34125685 423.18072391 -0.35764539 C492.13323217 -0.54850749 559.11283278 12.79226713 610.44287109 62.49414062 C611.54131636 63.55641883 612.64646921 64.61178237 613.75634766 65.66210938 C645.07939879 95.34611576 665.93840096 135.22143281 674.1875 177.5 C674.42001465 178.6900061 674.42001465 178.6900061 674.65722656 179.90405273 C677.4471583 195.0891224 678.37629686 210.02452749 678.3125 225.4375 C678.30976578 226.81455109 678.30976578 226.81455109 678.30697632 228.21942139 C678.25665535 243.32980717 677.5366677 258.07472082 675 273 C674.83902832 273.9792041 674.67805664 274.9584082 674.51220703 275.96728516 C667.8849484 314.94778907 651.96553786 351.85647639 625 381 C623.77023437 382.33611328 623.77023437 382.33611328 622.515625 383.69921875 C615.92923877 390.55465671 608.63482337 396.37097032 601 402 C600.4534375 402.40686035 599.906875 402.8137207 599.34375 403.23291016 C587.21627511 412.13538045 564.2421929 429 549 429 C549 429.66 549 430.32 549 431 C550.7325 431.309375 550.7325 431.309375 552.5 431.625 C574.60466122 436.61413984 593.70878571 448.56880456 610 464 C610.94746094 464.87140625 611.89492188 465.7428125 612.87109375 466.640625 C646.80833573 498.55541183 658.83318943 545.96630524 665.1875 590.4375 C665.3424292 591.50564941 665.4973584 592.57379883 665.65698242 593.67431641 C668.41588041 614.10848406 669.2536292 634.77203183 670.2038269 655.35162354 C672.62805996 734.95386622 672.62805996 734.95386622 699.14453125 808.76953125 C701 812 701 812 702 815 C642.6 815 583.2 815 522 815 C515.00137464 796.80357407 510.47264108 778.4779335 507.46484375 759.26171875 C507.35891844 758.58650051 507.25299313 757.91128227 507.14385796 757.21560287 C504.7779762 741.95143156 503.52312589 726.63794414 502.40182495 711.24050903 C501.82031467 703.27316973 501.18124673 695.31029991 500.5390625 687.34765625 C500.47554281 686.55772467 500.41202312 685.76779308 500.3465786 684.95392418 C494.80053603 595.35385864 494.80053603 595.35385864 449.109375 521.34765625 C416.21243213 496.50963783 374.69834069 497.53798419 335.5484848 497.49352264 C330.60449142 497.48518252 325.66062288 497.46079167 320.7166748 497.43786621 C306.33200457 497.38024808 291.94724218 497.34785965 277.5625 497.3125 C245.366875 497.209375 213.17125 497.10625 180 497 C180 601.94 180 706.88 180 815 C120.6 815 61.2 815 0 815 C0 546.05 0 277.1 0 0 Z M180 140 C180 215.24 180 290.48 180 368 C231.913125 368.061875 231.913125 368.061875 284.875 368.125 C301.23102783 368.15231201 301.23102783 368.15231201 317.91748047 368.18017578 C327.74208006 368.18686708 327.74208006 368.18686708 337.56668091 368.19088745 C341.92257754 368.19274118 346.27842479 368.20019785 350.63430786 368.21115112 C356.20985349 368.2249832 361.78532848 368.22896142 367.36088967 368.22614455 C369.39502301 368.22673261 371.42915911 368.23063047 373.46327758 368.23843026 C389.4433269 368.29680335 405.24432077 367.63049806 420.8125 363.6875 C421.69502441 363.46876221 422.57754883 363.25002441 423.48681641 363.0246582 C448.91651892 356.52864792 469.5492091 343.89756636 483.625 321.4375 C495.28592771 300.61251748 498.23042779 276.60103472 498.25 253.125 C498.25067474 252.39522949 498.25134949 251.66545898 498.25204468 250.91357422 C498.23470088 239.06922238 497.65208145 227.57936351 495 216 C494.83371094 215.26974609 494.66742187 214.53949219 494.49609375 213.78710938 C491.04859924 199.34593792 485.11188623 185.06050629 475 174 C474.19949219 173.10796875 473.39898438 172.2159375 472.57421875 171.296875 C451.41852661 148.88592471 418.50110329 140.86956331 388.59041214 139.7320652 C383.01260055 139.60186065 377.43672261 139.627403 371.85791016 139.65942383 C369.7125977 139.66034594 367.56728433 139.65993709 365.42197227 139.65832806 C359.75042703 139.65765925 354.07907719 139.67486543 348.40757751 139.69615936 C343.05776449 139.71342589 337.70799559 139.71405848 332.3581543 139.71618652 C316.78041098 139.73183957 301.20270292 139.77372332 285.625 139.8125 C233.340625 139.9053125 233.340625 139.9053125 180 140 Z " fill="#0000D6" transform="translate(317,686)"/>
<path d="M0 0 C8.48183206 6.76292257 11.5022476 17.01322481 15.2265625 26.8125 C15.87971473 28.50267156 16.53412042 30.19235921 17.18969727 31.8815918 C18.56218505 35.42293995 19.92794938 38.96677284 21.28857422 42.51269531 C23.28127053 47.70091518 25.29847401 52.87929462 27.32421875 58.0546875 C27.81358414 59.30517883 27.81358414 59.30517883 28.31283569 60.58093262 C28.97309162 62.26803846 29.63338015 63.95513155 30.29370117 65.64221191 C31.97428028 69.93970455 33.64923047 74.23938836 35.32421875 78.5390625 C38.96051394 87.87212867 42.59943495 97.20416703 46.24050903 106.53536987 C46.89656534 108.21675908 47.55255114 109.8981758 48.20846558 111.57962036 C52.15758047 121.7031363 56.11349005 131.82395763 60.078125 141.94140625 C60.88167428 143.99259397 61.68522246 146.04378212 62.48876953 148.0949707 C64.01206657 151.98326796 65.53664851 155.87105784 67.06201172 159.75854492 C70.69757496 169.03105169 74.31060567 178.31226295 77.8828125 187.609375 C78.23162476 188.51036926 78.58043701 189.41136353 78.93981934 190.33966064 C79.25680786 191.16826599 79.57379639 191.99687134 79.90039062 192.85058594 C80.18144653 193.58146423 80.46250244 194.31234253 80.7520752 195.06536865 C81.3515625 196.875 81.3515625 196.875 81.3515625 198.875 C89.75202351 192.62615571 98.1024897 186.32277755 106.3515625 179.875 C111.97419785 175.48047607 117.62891529 171.13850035 123.3515625 166.875 C128.99075719 162.67356231 134.56263536 158.39521479 140.1015625 154.0625 C146.46168519 149.08884004 152.88053757 144.20343301 159.3515625 139.375 C168.11231693 132.83644022 176.75397947 126.15623242 185.36621094 119.42382812 C189.75402549 116.00077162 194.16965876 112.61395122 198.58691406 109.22900391 C200.63285771 107.65916391 202.6756891 106.08530845 204.71875 104.51171875 C206.24210658 103.34104053 207.7655434 102.17046672 209.2890625 101 C209.9994165 100.45206787 210.70977051 99.90413574 211.44165039 99.33959961 C219.51717774 93.14552577 226.56058475 87.77761243 237.3515625 88.875 C244.97237254 90.82021484 250.10571502 94.21137826 254.3515625 100.875 C259.00168273 110.3911389 257.34468783 119.10747309 254.81640625 128.97265625 C254.54708282 130.05275467 254.2777594 131.13285309 254.00027466 132.24568176 C253.10703512 135.81235798 252.19888728 139.37502097 251.2890625 142.9375 C250.64697807 145.47475291 250.00497097 148.01202539 249.36303711 150.54931641 C238.99862461 191.39163578 227.5095435 231.92723981 216.09937668 272.48624802 C209.60716024 295.56389684 203.16625701 318.65159454 196.9765625 341.8125 C196.67535492 342.93854645 196.37414734 344.0645929 196.06381226 345.22476196 C193.16375289 356.08367343 190.31225882 366.95254707 187.58203125 377.85546875 C187.37066528 378.69542892 187.15929932 379.5353891 186.94152832 380.40080261 C185.99022867 384.18393861 185.04965354 387.96877461 184.13720703 391.76147461 C183.82251465 393.02870361 183.50782227 394.29593262 183.18359375 395.6015625 C182.92296143 396.68002441 182.6623291 397.75848633 182.39379883 398.86962891 C180.99570397 402.90114628 179.25598472 406.6102095 175.61286438 409.02972758 C172.65820703 410.13417559 170.19107599 410.128339 167.03523445 410.13226891 C165.72818051 410.1387178 164.42112656 410.14516669 163.07446492 410.151811 C161.62045384 410.1488686 160.16644315 410.14573316 158.71243286 410.14242554 C157.17057919 410.14616085 155.62872742 410.15076189 154.08687866 410.15615618 C149.84328949 410.16841628 145.59977898 410.16812219 141.35617614 410.16576743 C136.78211606 410.16536003 132.20808147 410.17639108 127.6340332 410.18588257 C118.67025904 410.20250982 109.70651118 410.20799289 100.74272288 410.20910732 C93.45834948 410.21005694 86.17398476 410.21416291 78.88961411 410.22050858 C58.24740064 410.23812536 37.605208 410.24734671 16.96298696 410.24584763 C15.29303937 410.24572776 15.29303937 410.24572776 13.58935547 410.24560547 C11.91737438 410.24548283 11.91737438 410.24548283 10.21161591 410.24535771 C-7.85805365 410.24454459 -25.9276399 410.26368763 -43.99728535 410.2918822 C-62.5409504 410.32058863 -81.08457479 410.33442375 -99.62826264 410.33269465 C-110.04322522 410.33202999 -120.45810046 410.33755543 -130.87304306 410.35905075 C-139.73972882 410.37723304 -148.60628764 410.3816342 -157.47298394 410.3680319 C-161.99828939 410.36148741 -166.52335109 410.36143826 -171.04863358 410.3787384 C-175.19018416 410.39440894 -179.33129653 410.39166756 -183.47283603 410.37417014 C-184.97214228 410.37108691 -186.47148074 410.3747822 -187.97074901 410.38589029 C-190.00726434 410.39998112 -192.04391311 410.3870517 -194.08042717 410.37277794 C-195.21210379 410.37321267 -196.3437804 410.37364741 -197.50975025 410.37409532 C-201.3922704 409.75672013 -203.5806684 408.28639413 -206.6484375 405.875 C-211.5934535 397.87587575 -212.85836475 386.34595025 -215.04690552 377.25595093 C-220.04329094 356.58392304 -225.5122496 336.04996714 -231.2109375 315.5625 C-231.39946667 314.88427563 -231.58799583 314.20605125 -231.78223801 313.50727463 C-237.28887697 293.70364968 -242.89895907 273.9297234 -248.52840137 254.1607275 C-249.13095783 252.04466431 -249.73346379 249.92858675 -250.3359375 247.8125 C-250.5342152 247.11612049 -250.7324929 246.41974098 -250.93677902 245.70225906 C-260.92445604 210.61553376 -270.64758783 175.44600218 -279.43939209 140.03778076 C-279.81907347 138.50988956 -280.20160803 136.98270357 -280.58746338 135.45635986 C-286.6721344 111.2826487 -286.6721344 111.2826487 -282.921875 101.94140625 C-279.03273487 95.63050095 -272.71198745 90.92985089 -265.6484375 88.875 C-254.77143188 87.62681903 -246.40888596 93.27159209 -238.1484375 99.75 C-237.29113037 100.40766357 -236.43382324 101.06532715 -235.55053711 101.74291992 C-232.90728904 103.77534662 -230.27700675 105.82363866 -227.6484375 107.875 C-226.03558348 109.1242497 -224.42231683 110.37296687 -222.80859375 111.62109375 C-219.78386431 113.96475828 -216.76457231 116.31516141 -213.75 118.671875 C-203.17970191 126.93495067 -192.49809001 135.05516794 -181.83789062 143.20166016 C-177.56889912 146.46433498 -173.30116316 149.72865187 -169.03320312 152.99267578 C-165.44183207 155.73916439 -161.85013599 158.48522598 -158.2578125 161.23046875 C-151.88161914 166.10370225 -145.50736936 170.9792552 -139.1484375 175.875 C-134.0264723 179.81646189 -128.90254341 183.75533324 -123.7734375 187.6875 C-123.07154297 188.22697266 -122.36964844 188.76644531 -121.64648438 189.32226562 C-117.37298813 192.59549539 -113.04546625 195.76952669 -108.6484375 198.875 C-108.48417267 198.28903549 -108.31990784 197.70307098 -108.15066528 197.09934998 C-106.18255467 190.29165794 -103.75508633 183.74318481 -101.140625 177.16015625 C-100.70303864 176.04889877 -100.26545227 174.9376413 -99.81460571 173.79270935 C-98.38806516 170.17277442 -96.95579521 166.55513664 -95.5234375 162.9375 C-94.52067263 160.39745538 -93.5191447 157.85692357 -92.51757812 155.31640625 C-90.02115712 148.98642975 -87.51949689 142.65853735 -85.01599121 136.33135986 C-83.77862959 133.20404793 -82.54193243 130.07647471 -81.30566406 126.94873047 C-78.5842657 120.0636296 -75.86252437 113.17866587 -73.13769531 106.29492188 C-65.80757297 87.77256267 -58.52447056 69.23167536 -51.24981689 50.68746948 C-50.3789846 48.47122337 -49.5055944 46.25598053 -48.62957764 44.04177856 C-46.54048726 38.75210145 -44.4805353 33.45543817 -42.50818062 28.12122059 C-41.55529237 25.54982059 -40.5871215 22.98429645 -39.61768723 20.41909599 C-38.94178513 18.61183058 -38.28763783 16.79647562 -37.63418579 14.98097229 C-34.45492512 6.59992083 -31.09704862 2.49183007 -23.4609375 -2 C-15.05838991 -4.47944027 -7.82461041 -3.87197216 0 0 Z " fill="#0000D6" transform="translate(669.6484375,3.125)"/>
</svg>
